<?xml version="1.0" standalone="no"?>
<!DOCTYPE svg PUBLIC "-//W3C//DTD SVG 20010904//EN"
 "http://www.w3.org/TR/2001/REC-SVG-20010904/DTD/svg10.dtd">
<svg version="1.0" xmlns="http://www.w3.org/2000/svg"
 width="26.000000pt" height="26.000000pt" viewBox="0 0 256.000000 256.000000"
 preserveAspectRatio="xMidYMid meet">

<g transform="translate(0.000000,256.000000) scale(0.100000,-0.100000)"
fill="#a02b2b" stroke="none">
<path d="M0 1280 l0 -1280 1280 0 1280 0 0 1280 0 1280 -1280 0 -1280 0 0
-1280z m2478 -3 l2 -1197 -1197 2 -1198 3 -3 1185 c-1 652 0 1191 3 1198 3 10
248 12 1197 10 l1193 -3 3 -1198z"/>
<path d="M160 1890 l0 -500 49 0 49 0 12 73 c13 76 59 215 93 282 69 137 208
295 335 378 128 86 282 146 416 162 l56 7 0 49 0 49 -505 0 -505 0 0 -500z"/>
<path d="M1250 2345 c0 -43 1 -45 30 -45 29 0 30 2 30 45 0 43 -1 45 -30 45
-29 0 -30 -2 -30 -45z"/>
<path d="M1390 2341 l0 -50 58 -11 c83 -16 229 -67 292 -102 267 -149 468
-426 511 -705 l13 -83 68 0 68 0 0 500 0 500 -505 0 -505 0 0 -49z"/>
<path d="M1460 2166 c38 -39 79 -71 100 -77 19 -7 67 -27 105 -46 l70 -35 -90
92 c-96 98 -121 114 -200 125 l-50 7 65 -66z"/>
<path d="M971 2199 c-35 -11 -60 -24 -55 -28 5 -5 50 -18 99 -29 83 -20 98
-21 190 -9 l100 12 -123 33 c-67 18 -128 35 -135 37 -6 2 -41 -5 -76 -16z"/>
<path d="M1105 2066 c-295 -68 -529 -293 -607 -584 -30 -112 -30 -288 1 -402
61 -231 232 -434 448 -531 113 -52 221 -72 358 -66 135 5 206 22 315 73 308
145 495 482 452 817 -41 325 -251 576 -567 677 -89 29 -307 37 -400 16z m370
-61 c203 -55 389 -210 480 -398 57 -119 70 -184 69 -337 0 -118 -4 -145 -27
-215 -100 -302 -366 -507 -677 -522 -612 -31 -1001 642 -668 1154 111 169 276
283 478 328 81 18 260 13 345 -10z"/>
<path d="M1206 1973 l-29 -5 43 -25 42 -25 -30 -31 c-27 -27 -34 -29 -59 -19
-15 6 -43 13 -60 16 -30 5 -33 3 -33 -19 0 -23 61 -85 85 -85 5 0 35 -13 65
-28 66 -33 78 -61 28 -63 -69 -3 -114 3 -154 22 -52 25 -77 51 -117 127 -30
56 -35 61 -51 49 -17 -12 -15 -17 19 -81 29 -52 39 -82 43 -133 5 -65 5 -65
-19 -58 -36 11 -56 34 -76 90 -38 104 -77 48 -72 -103 2 -48 0 -93 -4 -99 -27
-42 -66 21 -81 131 l-12 81 -37 -55 c-20 -30 -37 -58 -37 -62 0 -4 13 -5 28
-2 25 5 30 2 42 -26 13 -32 13 -33 -28 -67 -106 -88 -3 -110 132 -28 94 57
122 43 67 -32 -46 -63 -125 -97 -226 -98 -44 0 -83 -4 -87 -10 -4 -5 -8 -30
-8 -55 l0 -45 176 3 177 3 29 -28 c48 -45 71 -99 66 -154 -11 -109 -99 -221
-176 -223 -32 -1 -38 3 -66 47 -41 66 -47 143 -16 215 31 72 45 82 76 51 21
-22 23 -29 14 -53 -11 -30 -14 -105 -4 -130 9 -24 22 -19 44 17 23 38 26 97 6
135 -28 54 -101 102 -155 102 -36 0 -97 -50 -125 -102 -17 -32 -17 -35 4 -90
52 -140 183 -288 319 -361 l71 -38 29 21 c53 37 113 113 149 189 34 70 35 78
34 173 -2 108 -12 137 -60 173 -21 16 -43 20 -100 20 -54 1 -77 5 -89 18 -16
15 6 17 332 19 273 2 355 0 375 -10 42 -22 90 -74 117 -127 22 -42 25 -58 21
-120 -3 -38 -12 -85 -22 -102 -15 -29 -21 -33 -59 -33 -24 0 -56 8 -75 20 -34
21 -97 110 -108 154 -7 27 13 146 25 146 3 0 19 -8 35 -18 27 -16 29 -23 30
-73 1 -45 6 -63 29 -93 16 -20 34 -35 40 -33 7 2 13 23 15 48 6 99 -113 201
-236 203 -47 1 -57 -3 -77 -27 -70 -80 -58 -278 25 -406 34 -54 102 -121 123
-121 31 0 129 70 202 144 82 83 130 158 165 262 19 56 19 57 0 81 -44 56 -112
93 -171 93 -23 0 -39 3 -35 8 4 4 60 7 124 7 l117 0 3 29 c2 16 1 43 -2 60
l-6 31 -78 1 c-113 2 -182 37 -139 72 6 5 42 9 79 8 89 -1 102 12 57 57 -25
25 -52 38 -104 51 -38 10 -76 20 -82 22 -16 4 -17 40 -1 50 6 4 32 6 57 5 l45
-1 -32 33 c-18 18 -32 39 -32 46 0 18 -39 81 -51 81 -4 0 -16 -14 -25 -32 -13
-26 -15 -47 -9 -113 12 -140 12 -140 -10 -140 -11 0 -31 17 -50 43 -27 40 -30
51 -30 120 0 61 6 91 28 146 36 89 22 103 -28 30 -39 -56 -116 -124 -141 -124
-7 0 -16 15 -19 34 -6 28 -1 41 24 76 35 49 40 80 13 80 -25 0 -100 -50 -141
-94 -34 -35 -63 -44 -90 -27 -21 14 -5 44 62 115 35 37 61 69 58 71 -5 6 -82
4 -125 -2z m190 -253 c23 -92 15 -180 -24 -264 -17 -36 -30 -66 -28 -66 2 0
26 28 55 63 57 68 140 139 153 131 5 -3 15 -18 22 -33 15 -27 14 -28 -49 -76
-59 -44 -115 -110 -115 -134 0 -13 72 12 126 44 23 13 74 51 114 85 39 33 77
61 83 61 15 2 41 -2 45 -6 13 -13 -105 -150 -162 -187 -40 -27 -46 -28 -173
-28 -73 0 -133 2 -133 5 0 4 7 20 16 38 15 31 15 31 -18 -7 -39 -44 -40 -44
-85 49 -61 124 -87 209 -77 251 6 22 11 25 48 22 l41 -3 6 -80 c6 -77 32 -165
49 -165 23 0 31 281 10 321 -10 18 -8 25 16 50 27 28 29 29 46 12 9 -10 25
-47 34 -83z m-392 -131 c79 -31 133 -83 189 -181 26 -47 47 -88 47 -91 0 -4
-52 -7 -116 -7 -116 0 -117 0 -186 37 l-69 38 28 22 c36 29 44 29 95 -3 38
-24 147 -58 157 -49 5 5 -33 56 -62 83 -14 13 -69 47 -123 75 -103 55 -130 80
-104 98 20 13 74 4 144 -22z"/>
<path d="M1813 1675 c2 -54 3 -55 35 -61 18 -4 35 -4 38 -1 5 5 -63 117 -71
117 -2 0 -2 -25 -2 -55z"/>
<path d="M736 2010 c-143 -41 -169 -55 -217 -122 l-19 -26 37 10 c117 30 171
52 216 86 28 20 71 49 96 64 25 15 42 27 36 27 -5 0 -73 -18 -149 -39z"/>
<path d="M1851 2030 c3 -8 14 -46 24 -85 14 -52 30 -83 61 -120 23 -27 52 -66
64 -85 24 -39 24 -38 -15 108 -27 100 -29 103 -83 150 -31 26 -54 40 -51 32z"/>
<path d="M458 1663 c-100 -101 -119 -124 -127 -163 -20 -88 -16 -89 60 -15 54
54 79 89 109 153 21 45 48 96 60 112 12 17 20 30 18 30 -2 0 -56 -53 -120
-117z"/>
<path d="M2133 1563 c-18 -63 -19 -83 -6 -218 l8 -90 29 110 c16 61 28 118 28
128 -1 23 -31 127 -37 127 -2 0 -12 -26 -22 -57z"/>
<path d="M378 1224 c-21 -76 -38 -149 -38 -160 0 -29 29 -124 38 -124 4 0 17
39 30 88 19 78 21 101 14 212 l-7 124 -37 -140z"/>
<path d="M162 1283 c2 -24 8 -29 36 -31 48 -5 60 2 55 32 -5 23 -10 26 -50 26
-42 0 -44 -1 -41 -27z"/>
<path d="M2270 1280 l0 -30 65 0 65 0 0 30 0 30 -65 0 -65 0 0 -30z"/>
<path d="M162 668 l3 -503 503 -3 502 -2 0 65 c0 65 0 65 -29 65 -61 0 -229
52 -327 100 -282 140 -482 405 -544 723 l-11 57 -50 0 -49 0 2 -502z"/>
<path d="M2244 1071 c-78 -354 -345 -641 -694 -744 -47 -14 -102 -28 -122 -32
l-38 -6 0 -64 0 -65 505 0 505 0 0 505 0 505 -67 0 -68 0 -21 -99z"/>
<path d="M2143 1067 c-32 -32 -60 -73 -73 -106 -11 -30 -33 -75 -47 -100 -25
-44 -23 -43 60 38 80 78 86 88 102 149 9 35 14 66 12 68 -2 2 -26 -20 -54 -49z"/>
<path d="M494 915 c69 -267 73 -277 125 -329 28 -27 52 -48 55 -46 11 13 -53
190 -82 226 -18 22 -48 69 -67 104 -20 36 -34 56 -31 45z"/>
<path d="M1915 659 c-40 -11 -87 -33 -108 -51 -21 -16 -69 -48 -105 -70 -73
-42 -69 -42 86 1 96 28 143 56 182 111 12 16 20 30 18 29 -2 0 -34 -9 -73 -20z"/>
<path d="M870 486 c106 -107 118 -115 211 -132 l34 -7 -62 64 c-44 45 -77 69
-111 81 -26 10 -77 36 -112 59 l-65 41 105 -106z"/>
<path d="M1355 429 c-33 -5 -85 -6 -115 -3 -30 3 -53 4 -50 1 10 -10 246 -70
268 -69 33 3 135 33 129 39 -7 6 -149 43 -162 42 -5 -1 -37 -5 -70 -10z"/>
<path d="M1252 223 c3 -55 4 -58 31 -61 27 -3 27 -3 27 57 l0 61 -30 0 -31 0
3 -57z"/>
</g>
</svg>
