<?xml version="1.0" standalone="no"?>
<!DOCTYPE svg PUBLIC "-//W3C//DTD SVG 20010904//EN"
 "http://www.w3.org/TR/2001/REC-SVG-20010904/DTD/svg10.dtd">
<svg version="1.0" xmlns="http://www.w3.org/2000/svg"
 width="700.000000pt" height="700.000000pt" viewBox="0 0 700.000000 700.000000"
 preserveAspectRatio="xMidYMid meet">
<metadata>
Created by potrace 1.14, written by Peter Selinger 2001-2017
</metadata>
<g transform="translate(0.000000,700.000000) scale(0.100000,-0.100000)"
fill="#000000" stroke="none">
<path d="M0 3500 l0 -3500 3500 0 3500 0 0 3500 0 3500 -3500 0 -3500 0 0
-3500z m5922 3271 l847 -1 1 -608 c0 -334 3 -1808 6 -3276 l6 -2668 -2578 6
c-1419 3 -2893 6 -3276 6 l-698 0 -1 888 c-3 2166 -4 5340 -1 5479 3 131 5
152 20 158 9 4 134 9 277 12 143 3 261 7 263 8 1 1 967 1 2145 0 1178 -2 2523
-4 2989 -4z"/>
<path d="M443 6526 c-4 -6 -8 -2617 -4 -2708 1 -16 15 -18 136 -17 120 0 135
2 136 17 1 28 9 80 25 167 47 254 155 578 266 800 137 273 395 596 668 836
305 268 735 487 1146 585 58 13 122 27 142 29 20 3 51 7 67 10 80 12 132 18
153 19 22 0 23 0 20 135 l-3 136 -1373 0 c-788 0 -1376 -4 -1379 -9z"/>
<path d="M3448 6526 c-21 -11 -23 -19 -26 -104 -4 -122 2 -132 78 -132 49 0
61 4 70 20 16 30 15 190 -2 207 -19 18 -91 23 -120 9z"/>
<path d="M3804 6531 c-2 -2 -4 -63 -4 -136 l0 -131 103 -18 c206 -37 564 -152
766 -247 422 -198 873 -618 1145 -1068 198 -326 310 -646 361 -1031 3 -25 8
-57 11 -72 l6 -28 184 0 c168 0 184 1 185 18 5 107 0 2704 -5 2710 -8 7 -2744
10 -2752 3z"/>
<path d="M3930 5985 c184 -187 240 -229 406 -301 112 -49 316 -144 389 -182
21 -11 -341 357 -415 422 -98 86 -205 138 -309 152 -25 3 -53 7 -61 9 -8 1
-40 6 -70 10 l-55 7 115 -117z"/>
<path d="M2775 6045 c-115 -26 -243 -73 -263 -98 -10 -12 3 -18 76 -40 107
-32 278 -73 357 -86 57 -9 231 -7 285 3 14 3 48 7 75 10 28 3 73 8 100 12 71
9 96 12 130 14 29 2 29 2 -10 15 -58 20 -672 185 -682 184 -4 -1 -35 -7 -68
-14z"/>
<path d="M3150 5670 c-107 -13 -175 -29 -308 -71 -813 -258 -1425 -980 -1526
-1799 -14 -116 -15 -487 -1 -580 6 -41 15 -97 30 -187 10 -60 76 -267 112
-353 215 -507 599 -917 1078 -1150 256 -125 437 -176 725 -205 58 -6 329 -6
400 0 159 13 202 18 275 30 232 41 522 160 753 311 46 30 89 59 95 64 236 186
395 355 533 565 164 250 285 547 329 808 3 17 8 39 10 47 3 14 12 84 21 180 5
53 5 301 0 330 -3 14 -7 54 -11 90 -10 112 -54 308 -102 452 -174 530 -547
971 -1047 1234 -179 94 -406 181 -521 199 -27 5 -52 9 -55 10 -3 1 -36 5 -75
9 -38 5 -79 11 -90 13 -37 9 -559 11 -625 3z m615 -143 c17 -3 57 -7 90 -11
146 -16 370 -88 536 -171 246 -124 496 -320 677 -530 57 -67 183 -241 205
-283 8 -15 23 -43 34 -62 80 -140 173 -391 197 -531 41 -235 41 -713 0 -899
-61 -280 -249 -646 -446 -870 -192 -217 -385 -370 -623 -492 -155 -79 -377
-157 -520 -183 -162 -29 -295 -41 -420 -39 -259 4 -427 31 -650 105 -494 164
-906 518 -1162 999 -95 177 -186 452 -209 631 -2 14 -8 53 -13 85 -10 63 -8
419 4 494 50 340 188 673 389 943 79 106 110 142 217 248 245 244 538 413 889
514 142 41 153 43 245 51 39 4 72 8 74 10 5 4 447 -4 486 -9z"/>
<path d="M3357 5403 c-1 0 -27 -4 -57 -8 -30 -4 -58 -10 -62 -14 -4 -3 42 -35
102 -71 l110 -64 -28 -29 c-59 -64 -115 -112 -138 -119 -14 -3 -54 4 -100 18
-42 13 -88 25 -103 28 -96 17 -99 17 -115 1 -9 -9 -16 -23 -16 -30 0 -74 137
-216 242 -251 132 -43 306 -144 326 -189 10 -22 9 -27 -13 -41 -20 -13 -51
-16 -148 -16 -153 0 -248 20 -356 73 -121 60 -185 129 -288 310 -45 80 -90
153 -100 162 -18 15 -21 15 -51 -3 -18 -11 -32 -28 -32 -39 0 -10 36 -90 79
-177 101 -203 112 -243 125 -445 5 -82 -1 -94 -46 -85 -89 16 -158 94 -217
243 -18 45 -47 98 -65 119 -29 33 -34 36 -55 25 -25 -14 -55 -77 -66 -137 -4
-21 -8 -150 -11 -287 -2 -145 -8 -255 -14 -267 -27 -50 -76 -42 -117 19 -44
65 -92 229 -108 371 -4 30 -12 84 -19 120 l-11 65 -86 -130 c-136 -205 -135
-200 -41 -191 58 6 70 4 83 -11 20 -24 37 -60 49 -102 11 -39 -3 -70 -48 -105
-156 -123 -203 -221 -118 -245 87 -23 249 25 431 129 156 89 223 113 251 89
22 -18 12 -57 -37 -134 -83 -132 -226 -232 -394 -275 -84 -22 -138 -28 -307
-34 -156 -7 -175 -12 -188 -50 -13 -41 -20 -235 -8 -242 9 -6 121 -5 453 1 83
2 231 4 329 5 l179 2 69 -69 c134 -133 186 -240 186 -387 0 -101 -20 -183 -72
-293 -98 -206 -264 -352 -406 -355 -79 -2 -95 6 -145 76 -155 217 -173 445
-55 690 62 128 91 151 147 116 40 -24 93 -95 88 -118 -2 -9 -11 -46 -20 -82
-11 -42 -18 -104 -18 -175 -1 -195 39 -242 115 -136 55 77 84 221 63 321 -15
74 -100 190 -185 253 -50 36 -149 84 -190 91 -19 3 -48 8 -63 11 -96 15 -291
-145 -361 -295 -30 -63 -31 -87 -12 -150 78 -248 248 -513 476 -740 173 -172
270 -243 531 -383 l86 -46 54 36 c145 96 337 336 439 547 82 171 83 178 86
391 4 348 -28 455 -163 544 -64 42 -96 49 -254 56 -74 2 -157 9 -183 14 -46 8
-97 43 -84 57 22 21 247 27 1153 28 584 1 726 -3 778 -23 41 -16 135 -91 186
-147 83 -93 167 -234 190 -320 30 -112 -1 -388 -55 -496 -13 -26 -35 -55 -49
-64 -51 -33 -205 -20 -295 26 -91 46 -271 289 -308 415 -22 76 12 327 54 399
11 17 12 17 45 1 63 -33 118 -75 125 -98 11 -32 12 -39 18 -146 7 -111 14
-142 50 -204 30 -51 108 -127 130 -127 29 0 41 42 41 145 0 93 -2 105 -34 170
-25 52 -55 91 -115 150 -142 140 -285 204 -477 212 -129 7 -165 -4 -214 -59
-91 -104 -136 -268 -130 -473 3 -107 8 -148 30 -260 13 -63 68 -213 107 -290
57 -113 118 -196 217 -296 140 -140 162 -149 254 -103 132 67 321 215 479 376
223 227 341 417 442 706 42 121 45 146 23 188 -20 39 -117 136 -176 177 -107
73 -191 102 -325 112 -68 4 -116 24 -66 26 14 1 39 3 55 6 17 2 155 5 307 6
275 2 277 2 281 24 9 49 7 174 -3 236 -11 63 -14 67 -39 67 -294 6 -430 22
-521 63 -77 34 -100 82 -61 124 24 26 71 33 260 38 159 5 191 15 191 61 0 39
-104 137 -185 176 -37 17 -139 50 -228 74 -88 24 -167 49 -174 57 -21 21 -25
64 -9 96 18 35 52 43 174 41 48 -1 95 -1 106 -1 13 1 2 17 -44 65 -65 68 -110
127 -110 146 0 21 -53 124 -87 173 -20 26 -43 47 -53 47 -20 0 -70 -73 -88
-130 -19 -56 -17 -186 4 -380 8 -80 13 -218 7 -238 -20 -77 -154 22 -226 168
l-32 65 1 190 c1 209 -1 201 83 435 42 119 51 170 28 170 -17 0 -49 -35 -124
-136 -129 -171 -336 -347 -387 -328 -15 6 -30 37 -43 94 -17 67 -8 96 59 197
92 139 111 207 62 219 -40 10 -94 -11 -191 -74 -80 -53 -132 -96 -246 -204
-93 -88 -237 -87 -237 3 0 41 108 187 221 298 49 49 129 153 123 162 -4 7 -56
9 -141 7 -74 -2 -135 -4 -136 -5z m356 -463 c37 -30 84 -150 123 -315 11 -47
14 -316 4 -360 -5 -22 -11 -51 -13 -65 -11 -58 -39 -136 -92 -255 -31 -70 -55
-128 -52 -131 2 -2 53 53 112 122 122 143 227 247 330 329 109 87 123 85 174
-17 42 -82 44 -78 -114 -203 -55 -43 -136 -116 -180 -161 -77 -79 -160 -198
-149 -216 21 -34 249 54 399 155 52 35 181 132 195 147 14 15 164 133 219 173
59 43 66 45 117 42 61 -4 74 -10 74 -33 0 -48 -255 -347 -380 -447 -99 -78
-142 -100 -225 -113 -69 -11 -644 -10 -662 1 -9 6 -3 28 22 84 40 87 42 98 14
63 -71 -85 -130 -140 -151 -140 -35 0 -198 322 -283 559 -83 230 -86 399 -7
402 62 2 181 -6 186 -12 2 -2 6 -44 10 -94 12 -168 18 -210 38 -310 31 -153
83 -276 109 -259 9 5 25 59 33 109 14 89 18 170 21 355 2 225 -6 342 -31 408
-9 24 -13 53 -10 65 7 26 112 137 130 137 7 0 25 -9 39 -20z m-1169 -535 c137
-28 284 -89 383 -157 112 -77 247 -241 347 -420 75 -137 116 -221 111 -226
-13 -13 -134 -19 -360 -17 -283 2 -275 0 -498 120 l-149 80 49 42 c26 24 66
52 88 63 49 24 92 15 170 -34 123 -79 430 -178 450 -146 8 14 -57 111 -119
179 -44 47 -181 141 -311 211 -44 24 -105 57 -135 73 -152 83 -240 153 -240
193 0 53 77 67 214 39z"/>
<path d="M4959 4713 c-2 -47 1 -211 6 -232 9 -49 42 -65 157 -76 37 -4 38 12
2 81 -39 73 -140 230 -155 240 -5 3 -9 -3 -10 -13z"/>
<path d="M2379 5596 c-2 -3 -16 -7 -29 -10 -44 -9 -251 -66 -405 -111 -259
-76 -350 -118 -434 -204 -71 -71 -153 -188 -125 -177 10 5 78 24 149 43 153
40 306 94 390 136 51 25 199 120 215 137 3 3 67 45 143 94 75 49 137 90 137
92 0 5 -36 5 -41 0z"/>
<path d="M5081 5483 c11 -38 29 -101 40 -140 46 -171 78 -233 213 -404 50 -64
111 -145 134 -180 l44 -64 -6 40 c-3 22 -12 67 -21 100 -88 333 -103 388 -133
455 -26 60 -111 147 -221 228 -67 48 -73 44 -50 -35z"/>
<path d="M1300 4593 c-257 -259 -347 -362 -374 -428 -32 -76 -56 -231 -39
-248 9 -10 49 18 117 82 200 191 262 274 381 516 70 142 133 254 181 323 44
61 -24 -1 -266 -245z"/>
<path d="M5875 4394 c-23 -56 -63 -186 -71 -235 -13 -75 -4 -443 11 -469 2 -3
6 -52 10 -110 4 -58 10 -109 13 -115 3 -5 11 11 18 35 100 380 134 527 134
580 0 59 -80 350 -96 350 -2 0 -10 -16 -19 -36z"/>
<path d="M1127 3693 c-6 -11 -139 -517 -172 -658 -30 -126 -29 -164 11 -300
33 -113 62 -174 75 -154 14 22 58 165 84 274 39 164 45 250 32 485 -4 69 -10
177 -13 240 -6 117 -8 128 -17 113z"/>
<path d="M6313 3582 c-116 -3 -106 6 -105 -96 1 -32 4 -61 7 -64 7 -7 336 -4
343 3 7 6 6 144 0 151 -7 6 -130 9 -245 6z"/>
<path d="M456 3567 c-16 -11 -18 -22 -12 -60 4 -26 14 -53 22 -61 27 -28 190
-34 216 -8 12 12 13 70 3 102 -4 11 -18 25 -32 31 -38 14 -176 11 -197 -4z"/>
<path d="M439 3163 c-2 -162 11 -2707 15 -2710 3 -3 2639 -16 2729 -14 17 1
18 13 16 161 -1 99 -6 166 -13 176 -8 10 -34 16 -81 19 -123 6 -362 69 -615
162 -544 199 -1003 562 -1325 1048 -73 110 -85 129 -155 260 -113 207 -234
555 -274 785 -2 14 -9 53 -16 88 l-13 62 -133 0 -134 0 -1 -37z"/>
<path d="M6156 3023 c-44 -203 -80 -331 -135 -476 -245 -641 -724 -1170 -1339
-1477 -194 -97 -362 -157 -632 -229 -61 -16 -230 -51 -246 -51 -3 0 -3 -79 -2
-177 l3 -176 1365 0 c751 1 1372 2 1380 2 13 1 15 159 13 1364 -1 749 -2 1370
-2 1380 -1 16 -17 17 -184 17 l-184 0 -37 -177z"/>
<path d="M5958 3013 c-41 -37 -126 -125 -168 -173 -37 -42 -92 -132 -122 -200
-53 -118 -60 -134 -105 -225 -24 -49 -48 -94 -54 -99 -5 -6 -9 -16 -9 -24 0
-20 26 1 158 130 155 152 226 230 256 281 26 43 69 182 80 252 3 22 9 52 12
68 3 15 3 27 0 27 -3 0 -25 -17 -48 -37z"/>
<path d="M1355 2491 c3 -11 7 -28 9 -38 9 -42 91 -347 128 -473 63 -215 92
-266 220 -392 60 -60 116 -108 124 -108 18 0 13 31 -23 155 -27 94 -116 325
-149 385 -10 19 -44 71 -75 115 -53 76 -92 139 -189 303 -42 72 -57 89 -45 53z"/>
<path d="M5285 1815 c-181 -53 -248 -85 -403 -193 -70 -49 -177 -120 -239
-158 -61 -37 -110 -71 -107 -75 5 -8 36 -1 267 62 249 68 371 121 475 206 47
38 156 177 150 191 -1 4 -66 -10 -143 -33z"/>
<path d="M2120 1594 c0 -12 458 -462 510 -501 77 -58 148 -88 265 -112 55 -12
111 -24 125 -28 l25 -6 -20 24 c-74 89 -291 289 -354 327 -39 23 -76 42 -81
42 -20 0 -247 120 -357 189 -62 39 -113 68 -113 65z"/>
<path d="M3810 1189 c-82 -19 -167 -24 -352 -22 -109 1 -198 0 -198 -2 0 -7
308 -96 410 -118 14 -3 86 -20 160 -37 165 -38 198 -36 405 30 97 32 117 44
87 53 -76 23 -180 52 -247 69 -44 11 -89 22 -100 25 -36 9 -129 10 -165 2z"/>
<path d="M3420 755 c-5 -7 -8 -14 -6 -16 2 -2 6 -58 10 -124 4 -78 11 -127 21
-141 19 -29 100 -44 120 -23 13 13 18 105 16 274 l-1 41 -75 0 c-46 0 -79 -4
-85 -11z"/>
</g>
</svg>
